<svg id="Layer_1" data-name="Layer 1" xmlns="http://www.w3.org/2000/svg" height="30" width="100" viewBox="0 0 100 30">
    <defs>
        <style>
            .cls-1 {
                fill: #1b75bc;
            }
        </style>
    </defs>
    <title>fivestarlogo</title>
        <path id="svg_1" d="m1.75,19.82l0,-8.94a2,2 0 0 0 -0.33,-1.38a2.18,2.18 0 0 0 -1.42,-0.34l0,-0.39l10.55,0l0,1.45l0,1.45l-0.48,0a2.38,2.38 0 0 0 -0.76,-1.73a4.63,4.63 0 0 0 -2.37,-0.41l-2.45,0a0.82,0.82 0 0 0 -0.57,0.14a0.83,0.83 0 0 0 -0.14,0.57l0,4.39l2.7,0a3,3 0 0 0 1.77,-0.36a2.34,2.34 0 0 0 0.59,-1.53l0.46,0l0,4.6l-0.46,0a2.34,2.34 0 0 0 -0.59,-1.53a3,3 0 0 0 -1.77,-0.36l-2.7,0l0,4.39a1.88,1.88 0 0 0 0.36,1.38a2.59,2.59 0 0 0 1.53,0.33l0,0.38l-5.67,0l0,-0.38a2.16,2.16 0 0 0 1.42,-0.35a2,2 0 0 0 0.33,-1.38z"
        />
        <path id="svg_2" d="m13.272835,19.82l0,-8.94a1.88,1.88 0 0 0 -0.36,-1.38a2.59,2.59 0 0 0 -1.56,-0.34l0,-0.39l5.87,0l0,0.38a2.59,2.59 0 0 0 -1.56,0.34a1.88,1.88 0 0 0 -0.36,1.38l0,8.95a1.88,1.88 0 0 0 0.36,1.38a2.59,2.59 0 0 0 1.56,0.35l0,0.38l-5.88,0l0,-0.38a2.59,2.59 0 0 0 1.56,-0.35a1.88,1.88 0 0 0 0.37,-1.38z"
        />
        <path id="svg_3" d="m19.912835,10.88a4.41,4.41 0 0 0 -0.87,-1.39a1.71,1.71 0 0 0 -1.12,-0.33l0,-0.39l5.27,0l0,0.38q-1.19,0 -1.41,0.34t0.26,1.38l3.56,8.26l0,0l2.92,-7.57a3.24,3.24 0 0 0 0.38,-1.94q-0.2,-0.46 -1.42,-0.48l0,-0.37l4,0l0,0.38a1.39,1.39 0 0 0 -1,0.33a4.5,4.5 0 0 0 -0.77,1.39l-4.47,11.27l-0.31,0l-5.02,-11.26z"
        />
        <path id="svg_4" d="m32.202835,21.93l0,-0.38a2.19,2.19 0 0 0 1.42,-0.35a2,2 0 0 0 0.33,-1.38l0,-8.94a2,2 0 0 0 -0.33,-1.38a2.18,2.18 0 0 0 -1.42,-0.34l0,-0.39l10.55,0l0,1.45l0,1.45l-0.41,0a2.38,2.38 0 0 0 -0.76,-1.73a4.63,4.63 0 0 0 -2.37,-0.41l-2.53,0a0.82,0.82 0 0 0 -0.57,0.14a0.83,0.83 0 0 0 -0.14,0.57l0,4.39l2.87,0a3,3 0 0 0 1.77,-0.36a2.34,2.34 0 0 0 0.59,-1.53l0.46,0l0,4.6l-0.46,0a2.34,2.34 0 0 0 -0.59,-1.53a3,3 0 0 0 -1.77,-0.37l-2.87,0l0,4.82a1,1 0 0 0 0.18,0.73a1,1 0 0 0 0.73,0.18l1.87,0a6.34,6.34 0 0 0 3,-0.5a4.33,4.33 0 0 0 1.56,-2.11l0.53,0l-0.44,1.68l-0.45,1.68l-10.75,0l0,0.01z"
        />
        <path id="svg_5" d="m52.942835,12.72a4.56,4.56 0 0 0 -1.38,-2.46a3.39,3.39 0 0 0 -2.35,-1a2,2 0 0 0 -1.45,0.52a1.75,1.75 0 0 0 -0.56,1.34a2,2 0 0 0 0.52,1.39a8.09,8.09 0 0 0 2,1.41a14.23,14.23 0 0 1 3.31,2.36a3.24,3.24 0 0 1 0.81,2.29a3.3,3.3 0 0 1 -1.18,2.61a4.44,4.44 0 0 1 -3,1a7.12,7.12 0 0 1 -2.63,-0.58a1,1 0 0 0 -0.74,0a0.55,0.55 0 0 0 -0.33,0.51l0,0.12l-0.43,0l-0.6,-4.23l0.46,0a6,6 0 0 0 1.66,2.61a3.65,3.65 0 0 0 2.44,0.9a2.36,2.36 0 0 0 1.69,-0.62a2.1,2.1 0 0 0 0.66,-1.6a2.42,2.42 0 0 0 -0.63,-1.66a9.48,9.48 0 0 0 -2.37,-1.7a10.1,10.1 0 0 1 -2.68,-2a3.18,3.18 0 0 1 -0.7,-2.1a3.16,3.16 0 0 1 1,-2.42a3.62,3.62 0 0 1 2.58,-0.94a5.94,5.94 0 0 1 2.24,0.54a1.13,1.13 0 0 0 0.8,0.09a0.69,0.69 0 0 0 0.42,-0.52l0,-0.12l0.42,0l0.47,4.21l-0.45,0.05z"
        />
        <path id="svg_6" d="m60.192835,19.82l0,-10.21l-1.07,0a3.82,3.82 0 0 0 -2.29,0.48a3.49,3.49 0 0 0 -0.88,2.08l-0.47,0l0,-1.7l0.06,-1.7l11.3,0l0,1.7l0.06,1.7l-0.47,0a3.49,3.49 0 0 0 -0.88,-2.08a3.82,3.82 0 0 0 -2.29,-0.48l-1.04,0l0,10.21a1.89,1.89 0 0 0 0.36,1.38a2.5,2.5 0 0 0 1.52,0.35l0,0.38l-5.77,0l0,-0.38a2.45,2.45 0 0 0 1.51,-0.35a1.92,1.92 0 0 0 0.35,-1.38z"
        />
        <path id="svg_7" d="m84.222835,19.82l0,-8.94a2.07,2.07 0 0 0 -0.32,-1.38a2.06,2.06 0 0 0 -1.37,-0.34l0,-0.39l5.59,0a6.23,6.23 0 0 1 3.62,0.92a2.92,2.92 0 0 1 1.31,2.53a3,3 0 0 1 -1.43,2.62a5.79,5.79 0 0 1 -2.06,0.8l3.28,4.18a7.74,7.74 0 0 0 1.3,1.39a1.88,1.88 0 0 0 1.09,0.34l0,0.38l-3.18,0l-4.63,-6.14q-0.61,0 -1.17,0l0,4a1.88,1.88 0 0 0 0.36,1.38a2.59,2.59 0 0 0 1.56,0.35l0,0.38l-5.64,0l0,-0.38a2,2 0 0 0 1.37,-0.35a2.05,2.05 0 0 0 0.32,-1.35zm2,-4.69a2.2,2.2 0 0 1 0.42,0a5.64,5.64 0 0 0 3.2,-0.71a2.51,2.51 0 0 0 1,-2.22a2.43,2.43 0 0 0 -0.87,-2a4,4 0 0 0 -2.52,-0.7a4.19,4.19 0 0 0 -0.57,0a0.8,0.8 0 0 0 -0.54,0.22a1,1 0 0 0 -0.14,0.62l0.02,4.79z"
        />
        <polygon id="svg_8" points="75.40283198654652,8.819999694824219 77.03283686935902,13.829999923706055 82.29283137619495,13.829999923706055 78.03283686935902,16.920000076293945 79.66283412277699,21.93000030517578 75.40283198654652,18.84000015258789 71.14283747971058,21.93000030517578 72.77283473312855,16.920000076293945 68.51283259689808,13.829999923706055 73.78283686935902,13.829999923706055 75.40283198654652,8.819999694824219 "
            class="cls-1" />
</svg>